{"title":"Hasee Toh Phasee - Drama Queen Video Song HD 1080p {DAKU RG} {Gr","uid":9401391,"size":62426784,"categoryP":"video","categoryS":"music_videos","magnet":"?xt=urn:btih:58fbc43db77fd725c3029a8b5d19f78f93a36e44&amp;dn=Hasee+Toh+Phasee+-+Drama+Queen+Video+Song+HD+1080p+%7BDAKU+RG%7D+%7BGr&amp;tr=udp%3A%2F%2Ftracker.openbittorrent.com%3A80&amp;tr=udp%3A%2F%2Fopen.demonii.com%3A1337&amp;tr=udp%3A%2F%2Ftracker.coppersurfer.tk%3A6969&amp;tr=udp%3A%2F%2Fexodus.desync.com%3A6969","seeders":2,"leechers":0,"uploader":"Palash995","files":1,"time":1388080235,"description":"[center][b][size=200][color=red]Without Any reason..Don't Dislike the torrent.....please check and give your feedback[/color][/size]\n\n[img]http://i843.photobucket.com/albums/zz358/0Krish0/qiWyCf1pvj_zps682a8ccb.png[/img]\n\n[size=100][color=red][/color][/size]\n\n[img]http://i1.ytimg.com/vi/y6xsVUsFfPk/maxresdefault.jpg[/img]\n\n[img]http://cdn.koimoi.com/wp-content/new-galleries/2013/12/Parineeti-Chopra-and-Sidharth-Malhotra-in-a-Hasee-Toh-Phasee-movie-PosterEE.jpg[/img]\n\nScreenshots:-\n\n\n\n\n[img][/img]\n\nMedia Info:-\n\nGeneral\nComplete name                            : Hasee Toh Phasee - Drama Queen Video Song HD 1080p {DAKU RG} {GreatPalash}.mp4\nFormat                                   : MPEG-4\nFormat profile                           : Base Media\nCodec ID                                 : isom\nFile size                                : 59.5 MiB\nDuration                                 : 2mn 2s\nOverall bit rate mode                    : Variable\nOverall bit rate                         : 4 094 Kbps\nWriting application                      : Lavf53.31.100\n\nVideo\nID                                       : 1\nFormat                                   : AVC\nFormat/Info                              : Advanced Video Codec\nFormat profile                           : &lt;a class=&quot;__cf_email__&quot; href=&quot;/cdn-cgi/l/email-protection&quot; data-cfemail=&quot;93dbfaf4fbd3dfa7bda2&quot;&gt;[email&amp;#160;protected]&lt;/a&gt;&lt;script cf-hash='f9e31' type=&quot;text/javascript&quot;&gt;\n/* &lt;![CDATA[ */!function(){try{var t=&quot;currentScript&quot;in document?document.currentScript:function(){for(var t=document.getElementsByTagName(&quot;script&quot;),e=t.length;e--;)if(t[e].getAttribute(&quot;cf-hash&quot;))return t[e]}();if(t&amp;&amp;t.previousSibling){var e,r,n,i,c=t.previousSibling,a=c.getAttribute(&quot;data-cfemail&quot;);if(a){for(e=&quot;&quot;,r=parseInt(a.substr(0,2),16),n=2;a.length-n;n+=2)i=parseInt(a.substr(n,2),16)^r,e+=String.fromCharCode(i);e=document.createTextNode(e),c.parentNode.replaceChild(e,c)}}}catch(u){}}();/* ]]&gt; */&lt;/script&gt;\nFormat settings, CABAC                   : Yes\nFormat settings, ReFrames                : 3 frames\nCodec ID                                 : avc1\nCodec ID/Info                            : Advanced Video Coding\nDuration                                 : 2mn 2s\nBit rate mode                            : Variable\nBit rate                                 : 3 961 Kbps\nMaximum bit rate                         : 19.2 Mbps\nWidth                                    : 1920 pixels\nHeight                                   : 1080 pixels\nDisplay aspect ratio                     : 16:9\nFrame rate mode                          : Constant\nFrame rate                               : 25.000 fps\nStandard                                 : PAL\nColor space                              : YUV\nChroma subsampling                       : 4:2:0\nBit depth                                : 8 bits\nScan type                                : Progressive\nBits/(Pixel*Frame)                       : 0.076\nStream size                              : 57.6 MiB (97%)\n\nAudio\nID                                       : 2\nFormat                                   : AAC\nFormat/Info                              : Advanced Audio Codec\nFormat profile                           : LC\nCodec ID                                 : 40\nDuration                                 : 2mn 1s\nBit rate mode                            : Constant\nBit rate                                 : 126 Kbps\nChannel(s)                               : 2 channels\nChannel positions                        : Front: L R\nSampling rate                            : 44.1 KHz\nCompression mode                         : Lossy\nStream size                              : 1.83 MiB (3%)\n\n[IMG]http://imageshack.us/a/img89/4822/zka.gif[/IMG]\n\n[IMG]http://imageshack.us/a/img200/185/tj8.gif[/IMG]\n\n[IMG]http://imageshack.us/a/img593/9603/ua8.gif[/IMG]\n\n[IMG]http://imageshack.us/a/img707/5608/ysmp.png[/IMG][/b][/center]","torrent":{"xt":"urn:btih:58fbc43db77fd725c3029a8b5d19f78f93a36e44","amp;dn":"Hasee+Toh+Phasee+-+Drama+Queen+Video+Song+HD+1080p+%7BDAKU+RG%7D+%7BGr","amp;tr":["udp%3A%2F%2Ftracker.openbittorrent.com%3A80","udp%3A%2F%2Fopen.demonii.com%3A1337","udp%3A%2F%2Ftracker.coppersurfer.tk%3A6969","udp%3A%2F%2Fexodus.desync.com%3A6969"],"infoHash":"58fbc43db77fd725c3029a8b5d19f78f93a36e44","infoHashBuffer":{"type":"Buffer","data":[88,251,196,61,183,127,215,37,195,2,154,139,93,25,247,143,147,163,110,68]},"announce":[],"urlList":[]}}